<svg width="14" height="15" viewBox="0 0 14 15" fill="none" xmlns="http://www.w3.org/2000/svg">
<g clip-path="url(#clip0_1_36)">
<path d="M3.28348 6.1325C3.54313 5.34694 4.04423 4.66345 4.71531 4.17953C5.38638 3.6956 6.19314 3.43597 7.0205 3.43767C7.95836 3.43767 8.80632 3.77064 9.47226 4.3156L11.4101 2.37828C10.2292 1.34885 8.71586 0.713432 7.0205 0.713432C4.39559 0.713432 2.13584 2.21068 1.04926 4.40384L3.28348 6.1325Z" fill="#EA4335"/>
<path d="M9.2625 10.7097C8.65761 11.0999 7.88956 11.308 7.02051 11.308C6.19646 11.3097 5.39274 11.0521 4.72316 10.5717C4.05358 10.0914 3.55206 9.41259 3.2896 8.63145L1.04761 10.3335C1.5977 11.4469 2.449 12.3837 3.50482 13.0375C4.56064 13.6913 5.77865 14.0359 7.02051 14.0322C8.64818 14.0322 10.2031 13.4534 11.368 12.3674L9.26306 10.7097H9.2625Z" fill="#34A853"/>
<path d="M11.3682 12.3674C12.5863 11.2308 13.3771 9.53936 13.3771 7.37284C13.3771 6.97883 13.3166 6.5554 13.2261 6.16194H7.02069V8.73524H10.5923C10.4164 9.6004 9.94305 10.2702 9.26324 10.7097L11.3682 12.3674Z" fill="#4A90E2"/>
<path d="M3.28961 8.63144C3.15384 8.22572 3.08487 7.80065 3.08539 7.37282C3.08539 6.93885 3.15476 6.52208 3.28351 6.13251L1.04928 4.40385C0.592217 5.32655 0.3566 6.34312 0.361149 7.37282C0.361149 8.43832 0.608101 9.44278 1.04762 10.3335L3.28961 8.63144Z" fill="#FBBC05"/>
</g>
<defs>
<clipPath id="clip0_1_36">
<rect width="13.3188" height="13.3188" fill="white" transform="translate(0.361267 0.71344)"/>
</clipPath>
</defs>
</svg>
