<svg width="17" height="12" viewBox="0 0 17 12" fill="none" xmlns="http://www.w3.org/2000/svg">
<path d="M12.3907 11.0189L16.5113 6.76229C16.6888 6.57896 16.7956 6.33492 16.8115 6.07598C16.8274 5.81703 16.7515 5.56097 16.5979 5.35584L16.5124 5.25569L12.3918 0.987324C12.2073 0.791932 11.9573 0.677257 11.6935 0.666974C11.4297 0.656691 11.1721 0.751586 10.9739 0.932065C10.7758 1.11254 10.6522 1.36483 10.6287 1.63684C10.6051 1.90884 10.6835 2.1798 10.8476 2.39377L10.9331 2.49393L13.2931 4.9371L1.3599 4.9371C1.10758 4.93714 0.864048 5.03295 0.675495 5.20637C0.486942 5.37979 0.366481 5.61875 0.33696 5.87793L0.330776 6.00366C0.330839 6.2648 0.423618 6.51682 0.591496 6.71187C0.759373 6.90691 0.990659 7.0314 1.24143 7.06169L1.3599 7.06915L13.3004 7.06915L10.9341 9.51233C10.7566 9.69566 10.6498 9.93969 10.6339 10.1986C10.618 10.4576 10.6939 10.7136 10.8476 10.9188L10.9341 11.0189C11.1114 11.2025 11.3473 11.3129 11.5976 11.3294C11.848 11.3459 12.0956 11.2673 12.2939 11.1084L12.3907 11.0189Z" fill="white"/>
</svg>
